<svg xmlns="http://www.w3.org/2000/svg" width="400" height="600" viewBox="0 0 400 600">
  <defs>
    <linearGradient id="bodyGrad" x1="0%" y1="0%" x2="100%" y2="100%">
      <stop offset="0%" stop-color="#e8e4e0"/>
      <stop offset="100%" stop-color="#c4c0bc"/>
    </linearGradient>
    <linearGradient id="screenGrad" x1="0%" y1="0%" x2="100%" y2="100%">
      <stop offset="0%" stop-color="#8a9a40"/>
      <stop offset="100%" stop-color="#6a7a30"/>
    </linearGradient>
  </defs>

  <rect x="20" y="20" width="360" height="560" rx="20" fill="url(#bodyGrad)" stroke="#a8a4a0" stroke-width="2"/>

  <path d="M 20 60 h 360" stroke="#c4c0bc" stroke-width="4"/>
  <path d="M 20 70 h 360" stroke="#c4c0bc" stroke-width="4"/>

  <path d="M 40 90 h 320 a 10 10 0 0 1 10 10 v 170 a 40 40 0 0 1 -40 40 h -260 a 10 10 0 0 1 -10 -10 v -200 a 10 10 0 0 1 10 -10 z" fill="#a8a4a0"/>

  <line x1="50" y1="105" x2="100" y2="105" stroke="#d03870" stroke-width="2" stroke-linecap="round"/>
  <line x1="50" y1="110" x2="100" y2="110" stroke="#2838a8" stroke-width="2" stroke-linecap="round"/>
  <text x="200" y="110" font-family="monospace" font-size="8" fill="#555" text-anchor="middle" letter-spacing="1">DOT MATRIX WITH STEREO SOUND</text>
  <line x1="300" y1="105" x2="350" y2="105" stroke="#d03870" stroke-width="2" stroke-linecap="round"/>
  <line x1="300" y1="110" x2="350" y2="110" stroke="#2838a8" stroke-width="2" stroke-linecap="round"/>

  <circle cx="60" cy="180" r="4" fill="#ff5050"/>
  <text x="60" y="200" font-family="monospace" font-size="7" fill="#555" text-anchor="middle">BATTERY</text>

  <rect x="80" y="130" width="240" height="130" rx="4" fill="url(#screenGrad)"/>

  <text x="80" y="320" font-family="sans-serif" font-weight="900" font-size="16" fill="#2838a8" font-style="italic">Nintendo</text>
  <text x="160" y="320" font-family="sans-serif" font-weight="bold" font-size="18" fill="#2838a8">GAME BOY</text>

  <rect x="50" y="380" width="90" height="30" rx="4" fill="#282624" />
  <rect x="80" y="350" width="30" height="90" rx="4" fill="#282624" />
  <circle cx="95" cy="395" r="10" fill="#181616"/>

  <g transform="rotate(-20 280 410)">
    <rect x="230" y="375" width="100" height="40" rx="20" fill="#c4c0bc" />
    <circle cx="255" cy="395" r="16" fill="#d4286a" />
    <text x="255" y="425" font-family="sans-serif" font-weight="bold" font-size="12" fill="#2838a8" text-anchor="middle">B</text>
    <circle cx="305" cy="395" r="16" fill="#d4286a" />
    <text x="305" y="425" font-family="sans-serif" font-weight="bold" font-size="12" fill="#2838a8" text-anchor="middle">A</text>
  </g>

  <g transform="rotate(-20 180 500)">
    <rect x="130" y="500" width="40" height="12" rx="6" fill="#b8b4b8" />
    <text x="150" y="522" font-family="sans-serif" font-weight="bold" font-size="10" fill="#2838a8" text-anchor="middle">SELECT</text>
    <rect x="190" y="500" width="40" height="12" rx="6" fill="#b8b4b8" />
    <text x="210" y="522" font-family="sans-serif" font-weight="bold" font-size="10" fill="#2838a8" text-anchor="middle">START</text>
  </g>

  <g transform="rotate(-20 300 520)">
    <rect x="260" y="500" width="6" height="40" rx="3" fill="#888480"/>
    <rect x="272" y="500" width="6" height="40" rx="3" fill="#888480"/>
    <rect x="284" y="500" width="6" height="40" rx="3" fill="#888480"/>
    <rect x="296" y="500" width="6" height="40" rx="3" fill="#888480"/>
    <rect x="308" y="500" width="6" height="40" rx="3" fill="#888480"/>
    <rect x="320" y="500" width="6" height="40" rx="3" fill="#888480"/>
  </g>
</svg>
