<svg xmlns="http://www.w3.org/2000/svg" width="400" height="620" viewBox="0 0 400 620">
  <defs>
    <linearGradient id="bodyGrad" x1="0" y1="0" x2="1" y2="1">
      <stop offset="0%" stop-color="#eee9e2"/>
      <stop offset="45%" stop-color="#d8d2cb"/>
      <stop offset="100%" stop-color="#b9b3ad"/>
    </linearGradient>

    <linearGradient id="bezelGrad" x1="0" y1="0" x2="1" y2="1">
      <stop offset="0%" stop-color="#8d8798"/>
      <stop offset="100%" stop-color="#555063"/>
    </linearGradient>

    <linearGradient id="screenGrad" x1="0" y1="0" x2="1" y2="1">
      <stop offset="0%" stop-color="#a4ad58"/>
      <stop offset="100%" stop-color="#6e7d34"/>
    </linearGradient>

    <filter id="softShadow" x="-20%" y="-20%" width="140%" height="140%">
      <feDropShadow dx="0" dy="8" stdDeviation="7" flood-color="#000" flood-opacity="0.35"/>
    </filter>

    <filter id="innerShadow">
      <feOffset dx="3" dy="4"/>
      <feGaussianBlur stdDeviation="3" result="offset-blur"/>
      <feComposite operator="out" in="SourceGraphic" in2="offset-blur" result="inverse"/>
      <feFlood flood-color="#000" flood-opacity="0.35" result="color"/>
      <feComposite operator="in" in="color" in2="inverse" result="shadow"/>
      <feComposite operator="over" in="shadow" in2="SourceGraphic"/>
    </filter>

    <clipPath id="screenClip">
      <rect x="91" y="148" width="218" height="98" rx="4"/>
    </clipPath>
  </defs>

  <!-- Corpo -->
  <path
    d="M28 18
       H372
       Q382 18 382 28
       V528
       Q382 544 370 556
       L320 606
       Q308 618 292 618
       H28
       Q18 618 18 608
       V28
       Q18 18 28 18Z"
    fill="url(#bodyGrad)"
    stroke="#9f9993"
    stroke-width="2"
    filter="url(#softShadow)"
  />

  <!-- Linhas superiores -->
  <path d="M18 61 H382" stroke="#b9b3ad" stroke-width="3"/>
  <path d="M70 18 V61" stroke="#b9b3ad" stroke-width="2"/>
  <path d="M330 18 V61" stroke="#b9b3ad" stroke-width="2"/>

  <!-- ON/OFF -->
  <text x="92" y="43" font-family="Arial, sans-serif" font-size="8" fill="#777" letter-spacing="1">
    ◁ OFF · ON ▷
  </text>

  <!-- Moldura da tela -->
  <path
    d="M48 86
       H354
       Q363 86 363 95
       V254
       Q363 269 353 279
       L329 303
       Q322 310 312 310
       H57
       Q48 310 48 301
       V95
       Q48 86 57 86Z"
    fill="url(#bezelGrad)"
  />

  <!-- Faixas DOT MATRIX -->
  <line x1="65" y1="108" x2="134" y2="108" stroke="#b92d66" stroke-width="2" stroke-linecap="round"/>
  <line x1="65" y1="114" x2="134" y2="114" stroke="#28387f" stroke-width="2" stroke-linecap="round"/>
  <text x="200" y="115" font-family="Arial, sans-serif" font-size="8" fill="#d8d8d8" text-anchor="middle" letter-spacing="1">
    DOT MATRIX WITH STEREO SOUND
  </text>
  <line x1="266" y1="108" x2="337" y2="108" stroke="#b92d66" stroke-width="2" stroke-linecap="round"/>
  <line x1="266" y1="114" x2="337" y2="114" stroke="#28387f" stroke-width="2" stroke-linecap="round"/>

  <!-- Battery -->
  <circle cx="69" cy="191" r="6" fill="#3a2525"/>
  <circle cx="69" cy="191" r="4" fill="#e63946">
    <animate attributeName="opacity" values="0.45;1;0.45" dur="2s" repeatCount="indefinite"/>
  </circle>
  <text x="69" y="211" font-family="Arial, sans-serif" font-size="7" fill="#e2e2e2" text-anchor="middle">
    BATTERY
  </text>

  <!-- Tela verde -->
  <rect x="86" y="139" width="228" height="116" rx="5" fill="url(#screenGrad)" filter="url(#innerShadow)"/>

  <!-- Título dentro da tela -->
  <text x="200" y="158" font-family="Consolas, monospace" font-size="9" fill="#243914" text-anchor="middle" letter-spacing="1">
    CONTRIBUTIONS
  </text>

  <!-- Gráfico real do GitHub Contributions -->
  <g clip-path="url(#screenClip)">
    <rect x="91" y="148" width="218" height="98" fill="#8a9a40"/>

    <image
      href="https://ghchart.rshah.org/3a4818/Alexispher"
      x="91"
      y="164"
      width="218"
      height="70"
      preserveAspectRatio="xMidYMid meet"
    />

    <!-- Scanlines leves -->
    <g opacity="0.13">
      <rect x="91" y="150" width="218" height="2" fill="#1e2b10"/>
      <rect x="91" y="160" width="218" height="2" fill="#1e2b10"/>
      <rect x="91" y="170" width="218" height="2" fill="#1e2b10"/>
      <rect x="91" y="180" width="218" height="2" fill="#1e2b10"/>
      <rect x="91" y="190" width="218" height="2" fill="#1e2b10"/>
      <rect x="91" y="200" width="218" height="2" fill="#1e2b10"/>
      <rect x="91" y="210" width="218" height="2" fill="#1e2b10"/>
      <rect x="91" y="220" width="218" height="2" fill="#1e2b10"/>
      <rect x="91" y="230" width="218" height="2" fill="#1e2b10"/>
      <rect x="91" y="240" width="218" height="2" fill="#1e2b10"/>
    </g>
  </g>

  <!-- Brilho da tela -->
  <path d="M94 143 H306 Q310 143 310 147 V157 Q226 143 94 187Z" fill="#ffffff" opacity="0.08"/>

  <!-- Marca -->
  <text x="70" y="337" font-family="Arial, sans-serif" font-size="16" fill="#26358f" font-style="italic" font-weight="700">
    Retro
  </text>
  <text x="121" y="337" font-family="Arial, sans-serif" font-size="24" fill="#26358f" font-style="italic" font-weight="900">
    GAME BOY
  </text>
  <text x="271" y="328" font-family="Arial, sans-serif" font-size="8" fill="#26358f">
    TM
  </text>

  <!-- D-Pad base -->
  <circle cx="96" cy="424" r="59" fill="#c5c0bf" opacity="0.8"/>

  <!-- D-Pad -->
  <rect x="80" y="365" width="32" height="118" rx="6" fill="#151515"/>
  <rect x="37" y="408" width="118" height="32" rx="6" fill="#151515"/>
  <circle cx="96" cy="424" r="15" fill="#050505"/>
  <circle cx="96" cy="424" r="9" fill="#222"/>

  <!-- Botões A/B -->
  <g transform="rotate(-25 282 421)">
    <rect x="220" y="384" width="132" height="54" rx="27" fill="#c5c0bf" opacity="0.85"/>
    <circle cx="253" cy="411" r="22" fill="#9f1239"/>
    <circle cx="253" cy="411" r="17" fill="#cf2f68"/>
    <circle cx="315" cy="411" r="22" fill="#9f1239"/>
    <circle cx="315" cy="411" r="17" fill="#cf2f68"/>
    <text x="253" y="461" font-family="Arial, sans-serif" font-size="13" fill="#26358f" font-weight="900" text-anchor="middle">B</text>
    <text x="315" y="461" font-family="Arial, sans-serif" font-size="13" fill="#26358f" font-weight="900" text-anchor="middle">A</text>
  </g>

  <!-- SELECT / START -->
  <g transform="rotate(-24 190 520)">
    <rect x="132" y="506" width="48" height="14" rx="7" fill="#8f8a96"/>
    <rect x="205" y="506" width="48" height="14" rx="7" fill="#8f8a96"/>
    <text x="156" y="542" font-family="Arial, sans-serif" font-size="10" fill="#26358f" font-weight="900" text-anchor="middle">
      SELECT
    </text>
    <text x="229" y="542" font-family="Arial, sans-serif" font-size="10" fill="#26358f" font-weight="900" text-anchor="middle">
      START
    </text>
  </g>

  <!-- Speaker -->
  <g transform="rotate(-25 304 535)">
    <rect x="264" y="492" width="7" height="62" rx="4" fill="#77726d"/>
    <rect x="278" y="492" width="7" height="62" rx="4" fill="#77726d"/>
    <rect x="292" y="492" width="7" height="62" rx="4" fill="#77726d"/>
    <rect x="306" y="492" width="7" height="62" rx="4" fill="#77726d"/>
    <rect x="320" y="492" width="7" height="62" rx="4" fill="#77726d"/>
    <rect x="334" y="492" width="7" height="62" rx="4" fill="#77726d"/>
  </g>

  <!-- Phones -->
  <text x="82" y="586" font-family="Arial, sans-serif" font-size="9" fill="#777" letter-spacing="1">
    🎧 PHONES
  </text>
</svg>
